<svg width="24" height="25" viewBox="0 0 24 25" fill="none" xmlns="http://www.w3.org/2000/svg">
<path opacity="0.5" d="M22 12.5C22 18.023 17.523 22.5 12 22.5C6.477 22.5 2 18.023 2 12.5C2 6.977 6.477 2.5 12 2.5C17.523 2.5 22 6.977 22 12.5Z" fill="#4ECB71"/>
<path d="M16.03 9.46995C16.1705 9.61058 16.2494 9.8012 16.2494 9.99995C16.2494 10.1987 16.1705 10.3893 16.03 10.53L11.03 15.53C10.8894 15.6704 10.6988 15.7493 10.5 15.7493C10.3013 15.7493 10.1107 15.6704 9.97003 15.53L7.97003 13.53C7.89634 13.4613 7.83724 13.3785 7.79625 13.2865C7.75526 13.1945 7.73322 13.0952 7.73144 12.9945C7.72966 12.8938 7.74819 12.7937 7.78591 12.7004C7.82363 12.607 7.87977 12.5221 7.95099 12.4509C8.02221 12.3797 8.10705 12.3235 8.20043 12.2858C8.29382 12.2481 8.39385 12.2296 8.49455 12.2314C8.59526 12.2331 8.69457 12.2552 8.78657 12.2962C8.87857 12.3372 8.96137 12.3963 9.03003 12.47L10.5 13.9399L12.735 11.705L14.97 9.46995C15.1107 9.3295 15.3013 9.25061 15.5 9.25061C15.6988 9.25061 15.8894 9.3295 16.03 9.46995Z" fill="#4ECB71"/>
</svg>
