<svg width="24" height="25" viewBox="0 0 24 25" fill="none" xmlns="http://www.w3.org/2000/svg">
<path opacity="0.5" d="M22 12.5C22 18.023 17.523 22.5 12 22.5C6.477 22.5 2 18.023 2 12.5C2 6.977 6.477 2.5 12 2.5C17.523 2.5 22 6.977 22 12.5Z" fill="#F24E1E"/>
<path d="M15.75 12.5C15.75 12.6989 15.671 12.8897 15.5303 13.0303C15.3897 13.171 15.1989 13.25 15 13.25H9C8.80109 13.25 8.61032 13.171 8.46967 13.0303C8.32902 12.8897 8.25 12.6989 8.25 12.5C8.25 12.3011 8.32902 12.1103 8.46967 11.9697C8.61032 11.829 8.80109 11.75 9 11.75H15C15.1989 11.75 15.3897 11.829 15.5303 11.9697C15.671 12.1103 15.75 12.3011 15.75 12.5Z" fill="#F24E1E"/>
</svg>
