<svg width="24" height="25" viewBox="0 0 24 25" fill="none" xmlns="http://www.w3.org/2000/svg">
<path opacity="0.5" d="M12 22.5C17.5228 22.5 22 18.0228 22 12.5C22 6.97715 17.5228 2.5 12 2.5C6.47715 2.5 2 6.97715 2 12.5C2 18.0228 6.47715 22.5 12 22.5Z" fill="#7B61FF"/>
<path d="M13.926 14.8021C14.171 14.6111 14.3931 14.3891 14.8381 13.9441L20.3781 8.40405C20.5121 8.27005 20.451 8.03905 20.272 7.97705C19.4056 7.67427 18.6192 7.17883 17.9721 6.52805C17.3209 5.88098 16.8251 5.09456 16.522 4.22805C16.4611 4.04805 16.2301 3.98805 16.0961 4.12205L10.5561 9.66205C10.1111 10.1061 9.88905 10.3291 9.69805 10.5741C9.47244 10.8628 9.27896 11.1753 9.12105 11.5061C8.98805 11.7861 8.88805 12.0851 8.69005 12.6811L8.43305 13.4511L8.02405 14.6771L7.64205 15.8251C7.59434 15.9688 7.58753 16.123 7.6224 16.2704C7.65726 16.4178 7.73242 16.5527 7.83948 16.6598C7.94654 16.767 8.08128 16.8423 8.22865 16.8773C8.37603 16.9123 8.53024 16.9056 8.67405 16.8581L9.82405 16.4751L11.0481 16.0671L11.818 15.8101C12.4151 15.6111 12.713 15.5121 12.9931 15.3781C13.3241 15.2206 13.637 15.0275 13.926 14.8021ZM22.1131 6.67005C22.681 6.10222 23.0001 5.33203 23.0002 4.5289C23.0003 3.72578 22.6814 2.95551 22.1136 2.38755C21.5457 1.81959 20.7755 1.50046 19.9724 1.50037C19.1693 1.50027 18.399 1.81922 17.831 2.38705L17.6521 2.56505C17.5675 2.64875 17.5046 2.75173 17.4687 2.86514C17.4329 2.97854 17.4251 3.09897 17.446 3.21605C17.4731 3.36605 17.5231 3.58605 17.6141 3.84905C17.8593 4.55091 18.2607 5.18792 18.7881 5.71205C19.3119 6.23926 19.9485 6.64068 20.6501 6.88605C20.913 6.97605 21.1331 7.02705 21.2831 7.05405C21.5231 7.09705 21.7631 7.01905 21.9351 6.84705L22.1131 6.67005Z" fill="#7B61FF"/>
</svg>
