<svg width="36" height="36" viewBox="0 0 36 36" fill="none" xmlns="http://www.w3.org/2000/svg">
<path d="M7.5 21.0885C7.5 19.5735 7.5 18.8175 7.833 18.171C8.1645 17.526 8.781 17.085 10.0125 16.206L16.257 11.745C17.097 11.145 17.52 10.8435 18 10.8435C18.48 10.8435 18.9015 11.1435 19.743 11.745L25.9875 16.2045C27.219 17.085 27.8355 17.5245 28.167 18.171C28.5 18.816 28.5 19.5735 28.5 21.087V28.5C28.5 29.9145 28.5 30.621 28.0605 31.0605C27.621 31.5 26.9145 31.5 25.5 31.5H10.5C9.0855 31.5 8.379 31.5 7.9395 31.0605C7.5 30.621 7.5 29.9145 7.5 28.5V21.0885Z" fill="#F8F8F8" fill-opacity="0.25"/>
<path d="M4.5 18.5804C4.5 18.9794 4.5 19.1804 4.626 19.2419C4.752 19.3034 4.911 19.1819 5.226 18.9344L16.158 10.4324C17.043 9.74389 17.4855 9.40039 18 9.40039C18.5145 9.40039 18.957 9.74539 19.842 10.4324L30.774 18.9344C31.089 19.1804 31.248 19.3034 31.374 19.2419C31.5 19.1804 31.5 18.9794 31.5 18.5804V17.9669C31.5 17.2469 31.5 16.8869 31.347 16.5749C31.1955 16.2629 30.9105 16.0409 30.342 15.5999L19.842 7.43239C18.957 6.74389 18.5145 6.40039 18 6.40039C17.4855 6.40039 17.043 6.74539 16.158 7.43239L5.658 15.5999C5.0895 16.0409 4.8045 16.2629 4.653 16.5749C4.5 16.8869 4.5 17.2469 4.5 17.9669V18.5804ZM18.75 22.4999H17.25C16.4544 22.4999 15.6913 22.816 15.1287 23.3786C14.5661 23.9412 14.25 24.7042 14.25 25.4999V31.2749C14.25 31.3994 14.3505 31.4999 14.475 31.4999H21.525C21.5847 31.4999 21.6419 31.4762 21.6841 31.434C21.7263 31.3918 21.75 31.3346 21.75 31.2749V25.4999C21.75 24.7042 21.4339 23.9412 20.8713 23.3786C20.3087 22.816 19.5456 22.4999 18.75 22.4999Z" fill="#F8F8F8"/>
<path d="M26.25 7.5H24.75C24.3358 7.5 24 7.83579 24 8.25V12.75C24 13.1642 24.3358 13.5 24.75 13.5H26.25C26.6642 13.5 27 13.1642 27 12.75V8.25C27 7.83579 26.6642 7.5 26.25 7.5Z" fill="#F8F8F8"/>
</svg>
